<?xml version="1.0" encoding="UTF-8" standalone="no"?>
<!-- Created with Inkscape (http://www.inkscape.org/) -->

<svg
   width="48"
   height="48"
   viewBox="0 0 12.7 12.7"
   version="1.1"
   id="svg5"
   inkscape:version="1.2.1 (9c6d41e410, 2022-07-14)"
   sodipodi:docname="icon.svg"
   xmlns:inkscape="http://www.inkscape.org/namespaces/inkscape"
   xmlns:sodipodi="http://sodipodi.sourceforge.net/DTD/sodipodi-0.dtd"
   xmlns="http://www.w3.org/2000/svg"
   xmlns:svg="http://www.w3.org/2000/svg">
  <sodipodi:namedview
     id="namedview7"
     pagecolor="#0b0b0b"
     bordercolor="#eeeeee"
     borderopacity="1"
     inkscape:showpageshadow="0"
     inkscape:pageopacity="0"
     inkscape:pagecheckerboard="0"
     inkscape:deskcolor="#000000"
     inkscape:document-units="mm"
     showgrid="false"
     inkscape:zoom="5.2913967"
     inkscape:cx="-8.2208918"
     inkscape:cy="29.859791"
     inkscape:window-width="1366"
     inkscape:window-height="705"
     inkscape:window-x="-8"
     inkscape:window-y="-8"
     inkscape:window-maximized="1"
     inkscape:current-layer="layer1" />
  <defs
     id="defs2" />
  <g
     inkscape:label="Layer 1"
     inkscape:groupmode="layer"
     id="layer1">
    <path
       style="fill:none;fill-opacity:0;stroke:#ffffff;stroke-width:0.58;stroke-dasharray:none;stroke-opacity:1"
       d="M 9.4545031,3.2006314 H 1.884628 l 1.4787153,4.9748382 h 5.1439128"
       id="path3442"
       sodipodi:nodetypes="cccc" />
    <path
       style="fill:none;fill-opacity:0;stroke:#ffffff;stroke-width:0.622;stroke-dasharray:none;stroke-opacity:1"
       d="M 4.4993991,4.2742808 3.7713743,5.8112236"
       id="path3444"
       sodipodi:nodetypes="cc" />
    <path
       style="fill:none;fill-opacity:0;stroke:#ffffff;stroke-width:0.622;stroke-dasharray:none;stroke-opacity:1"
       d="M 6.4037147,4.165443 4.9072177,7.2393286"
       id="path3446"
       sodipodi:nodetypes="cc" />
    <path
       style="fill:none;fill-opacity:0;stroke:#ffffff;stroke-width:0.622;stroke-dasharray:none;stroke-opacity:1"
       d="M 7.6025725,5.4060997 6.7532103,7.1048254"
       id="path3448"
       sodipodi:nodetypes="cc" />
    <path
       style="fill:none;stroke:#ffffff;stroke-width:0.58;stroke-dasharray:none;stroke-opacity:1"
       d="M 11.482448,2.0049573 H 9.5554575 L 8.0400394,9.29112 h -4.304611"
       id="path1047"
       sodipodi:nodetypes="cccc" />
    <path
       id="path5686"
       style="fill:none;stroke:#ffffff;stroke-width:0.58"
       d="m 3.7384489,9.2908766 c -0.3728112,0 -0.6750343,0.3022231 -0.6750344,0.6750343 2e-7,0.3728111 0.3022234,0.6750341 0.6750344,0.6750341 0.372811,0 0.6750342,-0.311843 0.6750344,-0.6750341 2e-7,-0.3631912 -0.2198928,-0.7404696 -0.2198928,-0.7404696"
       sodipodi:nodetypes="csszc" />
    <path
       id="path5686-3"
       style="fill:none;stroke:#ffffff;stroke-width:0.58"
       d="m 8.0536871,9.2225387 c 0,0 -0.1049823,0.3772787 -0.1049821,0.7404702 2e-7,0.3631911 0.3022234,0.6750341 0.6750344,0.6750341 0.372811,0 0.6750342,-0.302223 0.6750344,-0.6750341 -10e-8,-0.3728115 -0.4171339,-0.6750349 -0.7899451,-0.6750349 -0.9120685,0 -0.9474256,0 -0.9474256,0"
       sodipodi:nodetypes="csszc" />
  </g>
</svg>
